# xmcd CD database file
#
# Track frame offsets:
#	150
#	19703
#	39113
#	61415
#	92175
#	109534
#	126762
#	141458
#	155496
#	174585
#
# Disc length: 2561 seconds
#
# Revision: 3
# Processed by: cddbd v1.5.2PL0 Copyright (c) Steve Scherf et al.
# Submitted via: CDex 1.78
#
DISCID=7f09ff0a
DTITLE=Chris Rea - Dancing Down The Stony Road [CD2]
DYEAR=2002
DGENRE=Rock
TTITLE0=Ride On
TTITLE1=When the Good Lord Talked To Jesus
TTITLE2=Qualified
TTITLE3=Sun Is Rising
TTITLE4=Someday My Peace Will Come
TTITLE5=Got To Be Moving On
TTITLE6=Ain't Going Down This Way
TTITLE7=Changing Times
TTITLE8=The Hustler
TTITLE9=Give That Girl A Diamond
EXTD=YEAR: 2002
EXTT0=
EXTT1=
EXTT2=
EXTT3=
EXTT4=
EXTT5=
EXTT6=
EXTT7=
EXTT8=
EXTT9=
PLAYORDER=
